<svg width="64" height="54" viewBox="0 0 64 54" fill="none" xmlns="http://www.w3.org/2000/svg">
<path d="M30.832 3.70929C30.9471 3.50024 31.1162 3.32592 31.3216 3.2045C31.5271 3.08309 31.7614 3.01904 32 3.01904C32.2386 3.01904 32.4729 3.08309 32.6784 3.2045C32.8838 3.32592 33.0529 3.50024 33.168 3.70929L41.04 18.6533C41.2277 18.9993 41.4897 19.2995 41.8072 19.5323C42.1247 19.765 42.4898 19.9246 42.8763 19.9996C43.2627 20.0745 43.661 20.063 44.0425 19.9658C44.424 19.8685 44.7792 19.6881 45.0827 19.4373L56.488 9.66663C56.7069 9.48855 56.9767 9.38454 57.2586 9.36956C57.5404 9.35459 57.8197 9.42942 58.0563 9.58328C58.2928 9.73715 58.4745 9.96212 58.5751 10.2258C58.6757 10.4895 58.69 10.7783 58.616 11.0506L51.0587 38.3733C50.9044 38.9324 50.5721 39.426 50.112 39.7792C49.652 40.1324 49.0893 40.326 48.5093 40.3306H15.4933C14.9129 40.3266 14.3496 40.1332 13.889 39.78C13.4285 39.4267 13.0957 38.9328 12.9413 38.3733L5.38666 11.0533C5.31266 10.781 5.32699 10.4922 5.42757 10.2285C5.52816 9.96479 5.70982 9.73982 5.9464 9.58595C6.18298 9.43208 6.46228 9.35725 6.7441 9.37223C7.02592 9.38721 7.29572 9.49122 7.51466 9.66929L18.9173 19.44C19.2208 19.6907 19.576 19.8712 19.9575 19.9684C20.339 20.0657 20.7373 20.0772 21.1237 20.0023C21.5102 19.9273 21.8753 19.7677 22.1928 19.5349C22.5103 19.3022 22.7723 19.002 22.96 18.656L30.832 3.70929Z" stroke="#FFBA59" stroke-width="5" stroke-linecap="round" stroke-linejoin="round"/>
<path d="M13.3333 51H50.6667" stroke="#FFBA59" stroke-width="5" stroke-linecap="round" stroke-linejoin="round"/>
</svg>
