<svg width="64" height="60" viewBox="0 0 64 60" fill="none" xmlns="http://www.w3.org/2000/svg">
<path d="M53.3333 32.6666C53.3333 45.9999 44 52.6666 32.9067 56.5332C32.3258 56.7301 31.6948 56.7207 31.12 56.5066C20 52.6666 10.6667 45.9999 10.6667 32.6666V13.9999C10.6667 13.2927 10.9476 12.6144 11.4477 12.1143C11.9478 11.6142 12.6261 11.3332 13.3333 11.3332C18.6667 11.3332 25.3333 8.13323 29.9733 4.0799C30.5383 3.59723 31.2569 3.33203 32 3.33203C32.7431 3.33203 33.4617 3.59723 34.0267 4.0799C38.6933 8.1599 45.3333 11.3332 50.6667 11.3332C51.3739 11.3332 52.0522 11.6142 52.5523 12.1143C53.0524 12.6144 53.3333 13.2927 53.3333 13.9999V32.6666Z" stroke="#FFBA59" stroke-width="5" stroke-linecap="round" stroke-linejoin="round"/>
<path d="M32 56.6668V3.3335" stroke="#FFBA59" stroke-width="5" stroke-linecap="round" stroke-linejoin="round"/>
</svg>
