<svg width="64" height="56" viewBox="0 0 64 56" fill="none" xmlns="http://www.w3.org/2000/svg">
<g clip-path="url(#clip0_2489_2)">
<path d="M32 3C33.7778 10.1111 37.3333 15.8889 42.6666 20.3333C48 24.7778 50.6666 29.6667 50.6666 35C50.6666 39.9507 48.7 44.6986 45.1993 48.1993C41.6986 51.7 36.9507 53.6667 32 53.6667C27.0493 53.6667 22.3013 51.7 18.8007 48.1993C15.3 44.6986 13.3333 39.9507 13.3333 35C13.3333 32.1151 14.269 29.3079 16 27C16 28.7681 16.7024 30.4638 17.9526 31.714C19.2028 32.9643 20.8985 33.6667 22.6666 33.6667C24.4348 33.6667 26.1304 32.9643 27.3807 31.714C28.6309 30.4638 29.3333 28.7681 29.3333 27C29.3333 21.6667 25.3333 19 25.3333 13.6667C25.3333 10.1111 27.5555 6.55556 32 3Z" stroke="#FFBA59" stroke-width="5" stroke-linecap="round" stroke-linejoin="round"/>
</g>
<defs>
<clipPath id="clip0_2489_2">
<rect width="64" height="56" fill="white"/>
</clipPath>
</defs>
</svg>
